<svg width="300" height="300" viewBox="0 0 300 300" fill="none" xmlns="http://www.w3.org/2000/svg">
<rect width="300" height="300" fill="white"/>
<path d="M232.168 81.8338H227.035V100.684H232.168C232.168 100.684 238.267 101.792 238.82 111.771V206.575C238.82 206.575 240.483 216.555 229.396 216L229.688 216.371C225.695 217.466 222.744 221.084 222.744 225.424V234.851L209.992 220.712C209.992 220.712 208.327 216 201.122 216H130.711C130.524 215.954 130.364 215.891 130.186 215.84H106.684C115.314 235.275 130.711 234.848 130.711 234.848H198.35L224.57 268.686V268.658C226.284 271.004 229.038 272.55 232.168 272.55C237.372 272.55 241.592 268.33 241.592 263.125V231.523C241.592 231.523 255.452 224.316 257.116 211.564V110.662C257.116 110.662 258.226 81.8338 232.168 81.8338Z" fill="#0579AC"/>
<path d="M70.8155 28.4014C62.1515 28.4014 54.2342 28.3027 46.3289 28.5294C45.3622 28.556 43.6582 30.3067 43.6302 31.2947C43.4062 39.204 43.5062 47.1214 43.5062 55.6027C52.7662 46.3787 61.4475 37.7334 70.8155 28.4014ZM218.17 175.631C208.78 185.032 200.002 193.817 190.793 203.036C199.169 203.036 207.12 203.131 215.062 202.921C216.118 202.893 218.009 201.351 218.034 200.467C218.266 192.385 218.17 184.295 218.17 175.631V175.631ZM84.7889 203.005C92.8302 203.005 100.728 203.067 108.621 202.932C109.664 202.915 110.896 202.105 111.69 201.312C121.713 191.317 131.724 181.308 141.55 171.121C142.349 170.292 142.464 167.615 141.745 166.713C138.606 162.773 135.042 159.171 131.916 155.756C115.792 171.921 100.509 187.247 84.7889 203.005ZM129.513 74.868C145.436 59.0467 160.764 43.8134 176.258 28.416C168.717 28.416 160.952 28.312 153.193 28.516C151.874 28.5507 150.352 29.6694 149.326 30.6907C139.561 40.4294 129.961 50.3374 120.11 59.9894C118.082 61.9774 118.165 63.1227 119.966 64.932C123.438 68.4187 126.789 72.0214 129.513 74.868ZM157.548 101.717C158.25 101.145 158.816 100.759 159.292 100.284C178.266 81.3787 197.466 62.6894 215.929 43.2947C218.476 40.62 217.4 34.4587 217.873 29.8974C217.912 29.5014 217.073 28.8467 216.516 28.5854C213.201 27.028 204.468 28.7827 201.766 31.484C188.73 44.5227 175.68 57.5507 162.664 70.6067C156.621 76.668 150.636 82.7894 144.618 88.8907C149.149 93.3867 153.216 97.42 157.548 101.717V101.717ZM118.797 141.572C114.36 137.873 110.525 135.037 107.141 131.739C104.78 129.436 103.254 129.967 101.256 131.972C82.7369 150.545 64.1675 169.069 45.6435 187.637C43.6689 189.616 42.4222 199.413 43.7715 201.721C44.0755 202.241 44.7622 202.915 45.2475 202.895C50.4542 202.687 55.9302 204.725 60.3075 199.427C64.3649 194.516 69.3342 190.364 73.8942 185.868C88.2915 171.671 102.685 157.467 118.797 141.572V141.572ZM43.4715 107.664C69.9929 81.2347 96.5089 54.8107 123.04 28.3694C115.91 28.3694 108.426 28.22 100.956 28.488C99.3395 28.5467 97.4662 29.792 96.2315 31.016C79.4409 47.668 62.7169 64.3907 46.0662 81.184C44.8475 82.4134 43.6449 84.304 43.5862 85.928C43.3262 93.4 43.4715 100.885 43.4715 107.664V107.664ZM136.922 203.037C144.93 203.037 151.389 203.372 157.785 202.887C160.698 202.667 164.209 201.568 166.218 199.605C182.666 183.567 198.83 167.235 215.053 150.967C216.118 149.9 217.748 148.639 217.785 147.428C218.026 139.241 217.91 131.044 217.91 123.536C191.302 149.653 164.693 175.776 136.922 203.037V203.037ZM104.156 75.4467C86.9035 92.848 70.8462 109.908 53.7795 125.891C45.6129 133.54 41.7235 141.556 43.3729 152.509C43.8209 155.487 43.4409 158.589 43.4409 163.005C45.7302 160.832 46.7195 159.932 47.6649 158.987C65.2329 141.433 82.8849 123.964 100.274 106.235C103.486 102.961 105.332 103.051 108.3 106.276C113.558 111.983 119.237 117.296 124.68 122.835C135.44 133.784 146.157 144.773 157.041 155.899C172.813 140.1 187.825 125.011 202.9 109.985C209.941 102.969 209.994 103.024 217.777 108.925V82.1427H190.641C192.981 84.8174 194.824 86.92 197.037 89.452C184.306 102.164 171.841 114.688 159.18 127.015C158.536 127.644 155.729 127.095 154.769 126.196C148.614 120.421 142.654 114.439 136.709 108.447C126.037 97.6867 115.42 86.872 104.156 75.4467" fill="#231F20"/>
<path fill-rule="evenodd" clip-rule="evenodd" d="M104.155 75.4463C115.419 86.8716 126.037 97.6876 136.709 108.446C142.654 114.44 148.614 120.421 154.769 126.196C155.729 127.094 158.535 127.644 159.181 127.014C171.841 114.688 184.306 102.164 197.037 89.4516C194.823 86.9196 192.981 84.8169 190.641 82.1423H217.777V108.925C209.994 103.024 209.941 102.969 202.899 109.986C187.825 125.01 172.813 140.1 157.041 155.898C146.157 144.773 135.439 133.784 124.681 122.836C119.238 117.297 113.558 111.982 108.299 106.276C105.331 103.05 103.486 102.962 100.274 106.236C82.8846 123.964 65.2326 141.433 47.6646 158.986C46.7193 159.932 45.73 160.832 43.4406 163.005C43.4406 158.589 43.8206 155.488 43.3726 152.509C41.7233 141.557 45.6126 133.54 53.7793 125.89C70.8473 109.908 86.9046 92.8489 104.155 75.4463Z" fill="#0579AC"/>
<path fill-rule="evenodd" clip-rule="evenodd" d="M136.922 203.038C164.693 175.776 191.302 149.654 217.91 123.536C217.91 131.044 218.026 139.242 217.784 147.428C217.748 148.639 216.117 149.9 215.053 150.967C198.83 167.235 182.666 183.566 166.218 199.606C164.209 201.567 160.698 202.667 157.784 202.887C151.389 203.371 144.93 203.038 136.922 203.038Z" fill="#5DA4D3"/>
<path fill-rule="evenodd" clip-rule="evenodd" d="M43.4718 107.664C43.4718 100.886 43.3264 93.3991 43.5864 85.9285C43.6451 84.3045 44.8478 82.4138 46.0664 81.1845C62.7451 64.3631 79.4678 47.6405 96.2318 31.0165C97.4664 29.7925 99.3384 28.5471 100.956 28.4885C108.426 28.2205 115.91 28.3698 123.04 28.3698C96.5078 54.8098 69.9931 81.2351 43.4718 107.664Z" fill="#5DA4D3"/>
<path fill-rule="evenodd" clip-rule="evenodd" d="M118.852 141.572C102.74 157.467 88.3466 171.671 73.9479 185.868C69.3879 190.364 64.4199 194.516 60.3639 199.427C55.9852 204.725 50.5079 202.687 45.3026 202.895C44.8172 202.915 44.1306 202.241 43.8252 201.721C42.4772 199.413 43.7226 189.616 45.6986 187.637C64.2212 169.069 82.7919 150.545 101.311 131.972C103.311 129.967 104.835 129.436 107.196 131.739C110.58 135.037 114.415 137.875 118.852 141.572Z" fill="#5DA4D3"/>
<path fill-rule="evenodd" clip-rule="evenodd" d="M157.601 101.718C153.269 97.4193 149.203 93.3859 144.673 88.8913C150.69 82.7886 156.675 76.6686 162.717 70.6073C175.737 57.5513 188.786 44.5233 201.821 31.4846C204.523 28.7819 213.254 27.0273 216.57 28.5846C217.127 28.8473 217.967 29.5019 217.926 29.8966C217.453 34.4593 218.531 40.6193 215.983 43.2953C197.522 62.6899 178.322 81.3793 159.347 100.285C158.871 100.759 158.305 101.145 157.601 101.718Z" fill="#5DA4D3"/>
<path fill-rule="evenodd" clip-rule="evenodd" d="M129.568 74.8683C126.844 72.0216 123.492 68.4189 120.021 64.9323C118.219 63.1229 118.139 61.9776 120.165 59.9896C130.016 50.3376 139.616 40.4296 149.383 30.6909C150.408 29.6696 151.929 28.5509 153.249 28.5163C161.005 28.3123 168.771 28.4163 176.315 28.4163C160.819 43.8123 145.488 59.0469 129.568 74.8683Z" fill="#5DA4D3"/>
<path fill-rule="evenodd" clip-rule="evenodd" d="M84.8441 203.006C100.563 187.247 115.848 171.922 131.971 155.756C135.096 159.171 138.661 162.774 141.8 166.714C142.517 167.615 142.407 170.292 141.604 171.122C131.777 181.308 121.768 191.318 111.745 201.312C110.949 202.106 109.717 202.915 108.675 202.932C100.781 203.067 92.8841 203.006 84.8441 203.006Z" fill="#5DA4D3"/>
<path fill-rule="evenodd" clip-rule="evenodd" d="M218.17 175.631C218.17 184.295 218.266 192.385 218.034 200.467C218.008 201.351 216.118 202.894 215.062 202.922C207.119 203.131 199.168 203.035 190.794 203.035C200.002 193.817 208.779 185.031 218.17 175.631Z" fill="#5DA4D3"/>
<path fill-rule="evenodd" clip-rule="evenodd" d="M70.8155 28.4013C61.4475 37.7333 52.7661 46.3786 43.5061 55.6026C43.5061 47.1213 43.4061 39.2026 43.6301 31.2946C43.6581 30.3066 45.3621 28.556 46.3288 28.5293C54.2341 28.3026 62.1515 28.4013 70.8155 28.4013Z" fill="#5DA4D3"/>
</svg>
