<svg width="521" height="360" viewBox="0 0 521 360" fill="none" xmlns="http://www.w3.org/2000/svg">
<path d="M53.6987 277.097L46.0641 286.37C42.6561 282.113 37.6147 279.453 33.0201 279.453C24.7934 279.453 18.5667 286.142 18.5667 294.882C18.5667 303.775 24.7934 310.541 33.0201 310.541C37.3934 310.541 42.4334 308.109 46.0641 304.309L53.7734 312.669C48.2147 318.522 39.9867 322.398 32.3521 322.398C16.7147 322.398 5.07739 310.617 5.07739 295.035C5.07739 279.681 17.0107 268.127 32.7974 268.127C40.5054 268.127 48.5094 271.625 53.6987 277.097Z" fill="#231F20"/>
<path d="M71.4124 295.187C71.4124 304.157 78.1578 311.073 86.0871 311.073C94.0924 311.073 100.466 304.157 100.466 295.187C100.466 286.218 94.0924 279.453 86.0871 279.453C78.0831 279.453 71.4124 286.218 71.4124 295.187ZM114.03 295.111C114.03 310.617 102.023 322.398 85.9404 322.398C69.9298 322.398 57.9231 310.693 57.9231 295.111C57.9231 279.605 69.9298 268.127 85.9404 268.127C102.023 268.127 114.03 279.681 114.03 295.111" fill="#231F20"/>
<path d="M159.686 321.79L135.821 289.03V321.79H123.443V268.584H135.079L159.019 301.42V268.584H171.323V321.79H159.686Z" fill="#231F20"/>
<path d="M224.539 273.905L219.572 284.47C214.088 281.202 207.195 278.921 202.971 278.921C199.561 278.921 197.264 280.213 197.264 282.797C197.264 291.994 224.687 286.75 224.687 305.981C224.687 316.622 215.496 322.246 203.935 322.246C195.263 322.246 186.368 318.902 180.217 313.733L185.331 303.321C190.668 308.109 198.672 311.301 204.083 311.301C208.233 311.301 210.827 309.705 210.827 306.665C210.827 297.239 183.403 302.863 183.403 284.014C183.403 274.209 191.631 267.975 204.083 267.975C211.568 267.975 219.203 270.331 224.539 273.905Z" fill="#231F20"/>
<path d="M247.515 279.225V289.79H272.27V300.432H247.515V311.149H275.754V321.79H234.322V268.584H274.938V279.225H247.515Z" fill="#231F20"/>
<path d="M316.963 304.536C316.963 315.862 310.07 322.398 299.027 322.398C291.689 322.398 285.761 319.282 281.163 313.886L287.242 304.84C290.947 308.792 295.099 310.768 298.137 310.768C301.621 310.768 303.697 308.564 303.697 304.232V279.454H285.907V268.508H316.963V304.536Z" fill="#231F20"/>
<path d="M342.088 279.225V289.79H366.843V300.432H342.088V311.149H370.327V321.79H328.895V268.584H369.511V279.225H342.088Z" fill="#231F20"/>
<path d="M404.494 296.175C410.201 296.175 413.537 293.211 413.537 287.586C413.537 282.038 410.201 279.226 404.494 279.226H394.489V296.175H404.494ZM404.865 306.816H404.494H394.489V321.79H381.297V268.584H404.494C418.206 268.584 426.062 275.272 426.062 287.13C426.062 295.263 422.728 301.116 416.649 304.232L427.545 321.79H412.574L404.865 306.816Z" fill="#231F20"/>
<path d="M447.334 263.947H437.55L445.408 251.178L456.97 255.358L447.334 263.947ZM437.404 268.584H450.597V321.791H437.404V268.584Z" fill="#231F20"/>
<path d="M486.615 282.038L479.055 301.724H494.027L486.615 282.038ZM475.201 311.984L471.421 321.79H457.858L480.242 268.584H493.806L515.669 321.79H501.587L497.881 311.984H475.201Z" fill="#231F20"/>
<path d="M6.48267 353.822H11.108C15.0773 353.822 17.9173 350.686 17.9173 346.094C17.9173 341.465 14.9307 338.291 10.816 338.291H6.48267V353.822ZM10.9613 332.99C18.9733 332.99 24.5093 338.291 24.5093 346.057C24.5093 353.785 18.9 359.123 10.7067 359.123H0V332.99H10.9613Z" fill="#231F20"/>
<path d="M35.609 338.217V343.407H47.773V348.633H35.609V353.897H49.4837V359.124H29.1277V332.991H49.0837V338.217H35.609Z" fill="#231F20"/>
<path d="M86.803 359.124L86.767 342.137L80.6483 356.51H76.4243L70.3057 342.137V359.124H64.515V332.953H71.6163L78.5363 348.521L85.455 332.953H92.5203V359.124H86.803Z" fill="#231F20"/>
<path d="M110.247 339.598L106.532 349.267H113.888L110.247 339.598ZM104.639 354.307L102.78 359.123H96.1165L107.115 332.99H113.779L124.523 359.123H117.604L115.782 354.307H104.639Z" fill="#231F20"/>
<path d="M145.893 359.124L134.166 343.033V359.124H128.085V332.99H133.802L145.565 349.118V332.99H151.61V359.124H145.893Z" fill="#231F20"/>
<path d="M164.385 338.217V343.407H176.549V348.633H164.385V353.897H178.26V359.124H157.904V332.991H177.86V338.217H164.385Z" fill="#231F20"/>
<path d="M198.502 350.649C198.502 356.212 195.116 359.422 189.69 359.422C186.085 359.422 183.17 357.892 180.913 355.241L183.9 350.798C185.72 352.74 187.758 353.71 189.253 353.71C190.965 353.71 191.984 352.628 191.984 350.5V338.329H183.244V332.953H198.502V350.649Z" fill="#231F20"/>
<path d="M209.313 346.057C209.313 350.462 212.627 353.86 216.523 353.86C220.456 353.86 223.588 350.462 223.588 346.057C223.588 341.652 220.456 338.329 216.523 338.329C212.591 338.329 209.313 341.652 209.313 346.057ZM230.253 346.02C230.253 353.636 224.353 359.422 216.451 359.422C208.584 359.422 202.684 353.673 202.684 346.02C202.684 338.404 208.584 332.766 216.451 332.766C224.353 332.766 230.253 338.441 230.253 346.02" fill="#231F20"/>
<path d="M251 353.822H255.625C259.594 353.822 262.434 350.686 262.434 346.094C262.434 341.465 259.449 338.291 255.334 338.291H251V353.822ZM255.478 332.99C263.492 332.99 269.028 338.291 269.028 346.057C269.028 353.785 263.418 359.123 255.225 359.123H244.518V332.99H255.478Z" fill="#231F20"/>
<path d="M280.127 338.217V343.407H292.291V348.633H280.127V353.897H294.002V359.124H273.646V332.991H293.602V338.217H280.127Z" fill="#231F20"/>
<path d="M320.432 346.542C323.237 346.542 324.875 345.086 324.875 342.323C324.875 339.598 323.237 338.217 320.432 338.217H315.515V346.542H320.432ZM320.615 351.769H320.432H315.515V359.123H309.033V332.99H320.432C327.169 332.99 331.029 336.275 331.029 342.099C331.029 346.094 329.391 348.969 326.404 350.499L331.757 359.123H324.403L320.615 351.769Z" fill="#231F20"/>
<path d="M343.077 338.217V343.407H355.241V348.633H343.077V353.897H356.951V359.124H336.595V332.991H356.551V338.217H343.077Z" fill="#231F20"/>
<path d="M384.55 337.172L380.8 341.726C379.124 339.636 376.648 338.329 374.389 338.329C370.348 338.329 367.289 341.614 367.289 345.908C367.289 350.276 370.348 353.598 374.389 353.598C376.538 353.598 379.014 352.404 380.8 350.537L384.586 354.644C381.856 357.518 377.813 359.422 374.062 359.422C366.377 359.422 360.66 353.636 360.66 345.982C360.66 338.441 366.522 332.766 374.281 332.766C378.068 332.766 382.001 334.484 384.55 337.172" fill="#231F20"/>
<path d="M411.674 348.148C411.674 355.054 407.196 359.422 400.057 359.422C392.882 359.422 388.294 355.054 388.294 348.148V332.99H394.777V348.148C394.777 351.694 396.998 353.86 400.093 353.86C403.152 353.86 405.229 351.694 405.229 348.148V332.99H411.674V348.148Z" fill="#231F20"/>
<path d="M428.929 346.542C431.735 346.542 433.372 345.086 433.372 342.323C433.372 339.598 431.735 338.217 428.929 338.217H424.012V346.542H428.929ZM429.112 351.769H428.929H424.012V359.123H417.531V332.99H428.929C435.667 332.99 439.527 336.275 439.527 342.099C439.527 346.094 437.888 348.969 434.901 350.499L440.255 359.123H432.9L429.112 351.769Z" fill="#231F20"/>
<path d="M464.94 335.603L462.5 340.793C459.804 339.187 456.417 338.067 454.342 338.067C452.666 338.067 451.537 338.702 451.537 339.971C451.537 344.489 465.013 341.913 465.013 351.358C465.013 356.585 460.497 359.347 454.814 359.347C450.554 359.347 446.185 357.705 443.161 355.166L445.674 350.051C448.297 352.403 452.23 353.971 454.888 353.971C456.928 353.971 458.202 353.187 458.202 351.694C458.202 347.065 444.728 349.827 444.728 340.569C444.728 335.753 448.77 332.691 454.888 332.691C458.566 332.691 462.317 333.849 464.94 335.603Z" fill="#231F20"/>
<path d="M474.694 346.057C474.694 350.462 478.007 353.86 481.903 353.86C485.836 353.86 488.968 350.462 488.968 346.057C488.968 341.652 485.836 338.329 481.903 338.329C477.971 338.329 474.694 341.652 474.694 346.057ZM495.634 346.02C495.634 353.636 489.734 359.422 481.831 359.422C473.964 359.422 468.064 353.673 468.064 346.02C468.064 338.404 473.964 332.766 481.831 332.766C489.734 332.766 495.634 338.441 495.634 346.02" fill="#231F20"/>
<path d="M520.099 335.603L517.659 340.793C514.963 339.187 511.576 338.067 509.501 338.067C507.825 338.067 506.696 338.702 506.696 339.971C506.696 344.489 520.172 341.913 520.172 351.358C520.172 356.585 515.656 359.347 509.973 359.347C505.713 359.347 501.344 357.705 498.32 355.166L500.833 350.051C503.456 352.403 507.389 353.971 510.047 353.971C512.087 353.971 513.361 353.187 513.361 351.694C513.361 347.065 499.887 349.827 499.887 340.569C499.887 335.753 503.929 332.691 510.047 332.691C513.725 332.691 517.476 333.849 520.099 335.603Z" fill="#231F20"/>
<path d="M331.972 53.8338H326.839V72.6845H331.972C331.972 72.6845 338.071 73.7925 338.624 83.7712V178.575C338.624 178.575 340.287 188.555 329.2 188L329.492 188.371C325.499 189.466 322.548 193.084 322.548 197.424V206.851L309.796 192.712C309.796 192.712 308.131 188 300.926 188H230.515C230.328 187.954 230.168 187.891 229.99 187.84H206.488C215.118 207.275 230.515 206.848 230.515 206.848H298.154L324.374 240.686V240.658C326.088 243.004 328.842 244.55 331.972 244.55C337.176 244.55 341.396 240.33 341.396 235.125V203.523C341.396 203.523 355.256 196.316 356.92 183.564V82.6618C356.92 82.6618 358.03 53.8338 331.972 53.8338Z" fill="#0579AC"/>
<path d="M170.619 0.401337C161.955 0.401337 154.038 0.302661 146.133 0.529328C145.166 0.555994 143.462 2.30667 143.434 3.29467C143.21 11.204 143.31 19.1213 143.31 27.6027C152.57 18.3787 161.251 9.73334 170.619 0.401337ZM317.974 147.631C308.583 157.032 299.806 165.817 290.597 175.036C298.973 175.036 306.923 175.131 314.866 174.921C315.922 174.893 317.813 173.351 317.838 172.467C318.07 164.385 317.974 156.295 317.974 147.631V147.631ZM184.593 175.005C192.634 175.005 200.531 175.067 208.425 174.932C209.467 174.915 210.699 174.105 211.494 173.312C221.517 163.317 231.527 153.308 241.354 143.121C242.153 142.292 242.267 139.615 241.549 138.713C238.41 134.773 234.846 131.171 231.719 127.756C215.595 143.921 200.313 159.247 184.593 175.005ZM229.317 46.868C245.239 31.0467 260.567 15.8133 276.062 0.416006C268.521 0.416006 260.755 0.312002 252.997 0.516002C251.678 0.550668 250.155 1.66933 249.13 2.69066C239.365 12.4293 229.765 22.3373 219.914 31.9893C217.886 33.9773 217.969 35.1227 219.77 36.932C223.242 40.4187 226.593 44.0213 229.317 46.868ZM257.351 73.7173C258.054 73.1453 258.619 72.7587 259.095 72.284C278.07 53.3787 297.27 34.6893 315.733 15.2947C318.279 12.62 317.203 6.45866 317.677 1.89733C317.715 1.50133 316.877 0.846671 316.319 0.585338C313.005 -0.971996 304.271 0.782665 301.57 3.484C288.534 16.5227 275.483 29.5507 262.467 42.6067C256.425 48.668 250.439 54.7893 244.422 60.8907C248.953 65.3867 253.019 69.42 257.351 73.7173V73.7173ZM218.601 113.572C214.163 109.873 210.329 107.037 206.945 103.739C204.583 101.436 203.058 101.967 201.059 103.972C182.541 122.545 163.971 141.069 145.448 159.637C143.473 161.616 142.226 171.413 143.575 173.721C143.879 174.241 144.566 174.915 145.051 174.895C150.258 174.687 155.734 176.725 160.111 171.427C164.169 166.516 169.138 162.364 173.698 157.868C188.095 143.671 202.489 129.467 218.601 113.572V113.572ZM143.276 79.664C169.797 53.2347 196.313 26.8107 222.843 0.369334C215.714 0.369334 208.23 0.220007 200.759 0.488007C199.143 0.546673 197.27 1.792 196.035 3.016C179.245 19.668 162.521 36.3907 145.87 53.184C144.651 54.4133 143.449 56.304 143.39 57.928C143.13 65.4 143.276 72.8853 143.276 79.664V79.664ZM236.726 175.037C244.734 175.037 251.193 175.372 257.589 174.887C260.502 174.667 264.013 173.568 266.022 171.605C282.47 155.567 298.634 139.235 314.857 122.967C315.922 121.9 317.551 120.639 317.589 119.428C317.83 111.241 317.714 103.044 317.714 95.536C291.106 121.653 264.497 147.776 236.726 175.037V175.037ZM203.959 47.4467C186.707 64.848 170.65 81.908 153.583 97.8907C145.417 105.54 141.527 113.556 143.177 124.509C143.625 127.487 143.245 130.589 143.245 135.005C145.534 132.832 146.523 131.932 147.469 130.987C165.037 113.433 182.689 95.964 200.078 78.2347C203.29 74.9613 205.135 75.0507 208.103 78.276C213.362 83.9827 219.041 89.296 224.483 94.8347C235.243 105.784 245.961 116.773 256.845 127.899C272.617 112.1 287.629 97.0107 302.703 81.9853C309.745 74.9693 309.798 75.024 317.581 80.9253V54.1427H290.445C292.785 56.8173 294.627 58.92 296.841 61.452C284.11 74.164 271.645 86.688 258.983 99.0147C258.339 99.644 255.533 99.0947 254.573 98.196C248.418 92.4213 242.458 86.4387 236.513 80.4467C225.841 69.6867 215.223 58.872 203.959 47.4467" fill="#231F20"/>
<path fill-rule="evenodd" clip-rule="evenodd" d="M203.959 47.4462C215.223 58.8716 225.841 69.6876 236.513 80.4462C242.458 86.4396 248.418 92.4209 254.573 98.1956C255.533 99.0942 258.339 99.6436 258.985 99.0142C271.645 86.6876 284.11 74.1636 296.841 61.4516C294.627 58.9196 292.785 56.8169 290.445 54.1422H317.581V80.9249C309.798 75.0236 309.745 74.9689 302.703 81.9862C287.629 97.0102 272.617 112.1 256.845 127.898C245.961 116.773 235.243 105.784 224.485 94.8356C219.042 89.2969 213.362 83.9822 208.103 78.2756C205.135 75.0502 203.29 74.9622 200.078 78.2356C182.689 95.9636 165.037 113.433 147.469 130.986C146.523 131.932 145.534 132.832 143.245 135.005C143.245 130.589 143.625 127.488 143.177 124.509C141.527 113.557 145.417 105.54 153.583 97.8902C170.651 81.9076 186.709 64.8489 203.959 47.4462Z" fill="#0579AC"/>
<path fill-rule="evenodd" clip-rule="evenodd" d="M236.726 175.038C264.497 147.776 291.106 121.654 317.714 95.5362C317.714 103.044 317.83 111.242 317.588 119.428C317.552 120.639 315.921 121.9 314.857 122.967C298.634 139.235 282.47 155.566 266.022 171.606C264.013 173.567 260.502 174.667 257.588 174.887C251.193 175.371 244.734 175.038 236.726 175.038Z" fill="#5DA4D3"/>
<path fill-rule="evenodd" clip-rule="evenodd" d="M143.276 79.6645C143.276 72.8858 143.13 65.3992 143.39 57.9285C143.449 56.3045 144.652 54.4138 145.87 53.1845C162.549 36.3632 179.272 19.6405 196.036 3.01649C197.27 1.79249 199.142 0.547154 200.76 0.488487C208.23 0.220487 215.714 0.36982 222.844 0.36982C196.312 26.8098 169.797 53.2352 143.276 79.6645Z" fill="#5DA4D3"/>
<path fill-rule="evenodd" clip-rule="evenodd" d="M218.656 113.572C202.544 129.467 188.151 143.671 173.752 157.868C169.192 162.364 164.224 166.516 160.168 171.427C155.789 176.725 150.312 174.687 145.107 174.895C144.621 174.915 143.935 174.241 143.629 173.721C142.281 171.413 143.527 161.616 145.503 159.637C164.025 141.069 182.596 122.545 201.115 103.972C203.115 101.967 204.639 101.436 207 103.739C210.384 107.037 214.219 109.875 218.656 113.572Z" fill="#5DA4D3"/>
<path fill-rule="evenodd" clip-rule="evenodd" d="M257.405 73.718C253.073 69.4193 249.007 65.386 244.477 60.8913C250.494 54.7886 256.479 48.6686 262.521 42.6073C275.541 29.5513 288.59 16.5233 301.625 3.48463C304.327 0.781962 313.058 -0.972704 316.374 0.58463C316.931 0.847296 317.771 1.50196 317.73 1.89663C317.257 6.45929 318.335 12.6193 315.787 15.2953C297.326 34.69 278.126 53.3793 259.151 72.2846C258.675 72.7593 258.109 73.1446 257.405 73.718Z" fill="#5DA4D3"/>
<path fill-rule="evenodd" clip-rule="evenodd" d="M229.372 46.8683C226.648 44.0216 223.296 40.419 219.825 36.9323C218.023 35.123 217.943 33.9776 219.969 31.9896C229.82 22.3376 239.42 12.4296 249.187 2.69096C250.212 1.66962 251.733 0.550956 253.053 0.516289C260.809 0.312289 268.575 0.416288 276.119 0.416288C260.623 15.8123 245.292 31.047 229.372 46.8683Z" fill="#5DA4D3"/>
<path fill-rule="evenodd" clip-rule="evenodd" d="M184.648 175.006C200.367 159.247 215.652 143.922 231.775 127.756C234.9 131.171 238.465 134.774 241.604 138.714C242.321 139.615 242.211 142.292 241.408 143.122C231.581 153.308 221.572 163.318 211.549 173.312C210.753 174.106 209.521 174.915 208.479 174.932C200.585 175.067 192.688 175.006 184.648 175.006Z" fill="#5DA4D3"/>
<path fill-rule="evenodd" clip-rule="evenodd" d="M317.974 147.631C317.974 156.295 318.07 164.385 317.838 172.467C317.812 173.351 315.922 174.894 314.866 174.922C306.923 175.131 298.972 175.035 290.598 175.035C299.806 165.817 308.583 157.031 317.974 147.631Z" fill="#5DA4D3"/>
<path fill-rule="evenodd" clip-rule="evenodd" d="M170.619 0.401331C161.251 9.73333 152.57 18.3787 143.31 27.6027C143.31 19.1213 143.21 11.2027 143.434 3.29466C143.462 2.30666 145.166 0.555998 146.133 0.529332C154.038 0.302665 161.955 0.401331 170.619 0.401331Z" fill="#5DA4D3"/>
</svg>
